PathFileType	4	(X/Y/Z)	C:/Users/beibeiliu/ov580/test_trc/capture2\sequence.5_training_dense_left.trc
DataRate	CameraRate	NumFrames	NumMarkers	Units	OrigDataRate	OrigDataStartFrame	OrigNumFrames
120	120	15	19	mm	120	219	350
Frame#	Time	ThumbCMC			ThumbMCP			ThumbIP			ThumbTip			IndexMCP			IndexPIP			IndexTip			MiddleMCP			MiddlePIP			MiddleTip			RingMCP			RingPIP			RingTip			PinkyMCP			PinkyPIP			PinkyTip			BackHand1			BackHand2			BackHand3	
		X0	Y0	Z0	X1	Y1	Z1	X2	Y2	Z2	X3	Y3	Z3	X4	Y4	Z4	X5	Y5	Z5	X6	Y6	Z6	X7	Y7	Z7	X8	Y8	Z8	X9	Y9	Z9	X10	Y10	Z10	X11	Y11	Z11	X12	Y12	Z12	X13	Y13	Z13	X14	Y14	Z14	X15	Y15	Z15	X16	Y16	Z16	X17	Y17	Z17	X18	Y18	Z18	
218	1.81667	-122.034	75.1381	-30.7362	-111.802	59.2032	-56.0322	-107.763	57.8578	-83.8581	-114.776	57.5635	-108.577	-116.711	101.375	-93.8389	-108.008	91.1892	-114.758	-98.3078	78.6864	-137.54	-138.421	85.7392	-104.823	-131.801	56.5823	-103.338	-136.218	56.8426	-64.7737	-155.359	71.4346	-96.5001	-144.196	45.601	-80.4954	-148.883	58.6064	-52.0905	-172.411	65.5402	-89.8234	-156.507	46.3835	-70.2623	-159.162	64.6505	-42.8254	-174.04	102.257	-53.6153	-181.955	95.5076	-23.9461	-149.751	105.765	-30.277	
219	1.825	-123.56	74.7532	-29.1626	-110.369	59.1479	-55.3561	-107.099	59.0298	-86.3931	-115.059	57.2833	-105.804	-117.896	102.627	-92.7535	-110.149	92.815	-115.484	-99.5263	79.384	-140.218	-139.561	86.7542	-101.38	-133.736	55.9583	-103.528	-137.623	55.1367	-65.5798	-153.765	67.9424	-97.3211	-144.132	46.8394	-82.7742	-148.624	59.6519	-49.5185	-168.755	66.158	-88.0567	-160.094	43.9813	-71.1312	-158.735	62.1036	-45.3094	-175.384	99.7434	-53.9026	-180.287	95.9356	-22.4726	-150.153	104.631	-32.8346	
220	1.83333	-121.599	74.6223	-26.98	-110.039	59.7711	-54.7129	-104.122	56.7048	-82.4134	-116.856	58.8403	-106.664	-119.97	103.973	-92.3669	-108.523	95.7412	-116.455	-101.099	88.9166	-137.272	-137.471	88.757	-99.0542	-128.486	57.0111	-101.784	-133.067	56.8632	-63.123	-153.681	68.5059	-97.4975	-146.485	45.1661	-81.6566	-147.682	57.671	-50.952	-168.788	61.1088	-90.2155	-157.739	44.0487	-71.2241	-157.574	64.987	-44.503	-178.028	98.4845	-54.6475	-178.108	93.1318	-23.4631	-147.895	104.947	-31.6461	
221	1.84167	-119.288	74.1101	-25.8853	-108.26	59.0105	-56.4468	-105.023	56.9592	-85.3943	-116.358	57.7827	-108.383	-121.306	106.376	-90.5574	-110.949	101.596	-113.464	-102.72	96.0074	-138.481	-135.741	89.4614	-100.092	-130.216	56.4456	-100.824	-133.992	56.9669	-62.2045	-150.976	71.9123	-95.5336	-143.654	46.0749	-80.8923	-148.149	58.7873	-48.5424	-165.135	64.2669	-88.5716	-156.457	44.5493	-69.9587	-160.354	63.6946	-42.3693	-174.185	98.8825	-53.4184	-182.538	91.9787	-17.8692	-145.74	105.363	-30.5705	
222	1.85	-119.479	72.243	-26.4065	-108.048	56.6642	-57.0372	-104.367	55.0058	-85.7084	-119.055	56.1498	-109.558	-118.184	107.931	-86.9724	-108.161	104.521	-110.224	-101.632	102.543	-134.65	-135.512	89.4673	-97.057	-126.697	55.9359	-98.6938	-133.307	55.9843	-61.414	-148.52	71.1775	-95.5826	-142.353	45.0421	-81.9982	-147.335	54.7506	-49.2549	-168.156	66.7103	-86.6185	-155.592	44.0404	-67.2711	-159.679	63.8793	-41.1478	-174.825	98.1895	-52.2272	-177.502	90.2773	-18.8253	-148.294	101.113	-26.9026	
223	1.85833	-115.748	68.4197	-25.2555	-107.376	50.5313	-51.3728	-105.813	50.7282	-79.9849	-114.181	51.5788	-106.557	-114.63	105.76	-86.7185	-107.8	103.584	-110.424	-101.269	102.929	-136.072	-134.571	84.1639	-97.9688	-123.791	54.5794	-99.6305	-128.171	52.5632	-60.076	-146.187	71.029	-93.9286	-139.318	43.1485	-79.5114	-141.945	51.5407	-50.2382	-161.031	62.7382	-87.9419	-150.809	44.148	-69.1897	-156.139	61.1252	-41.2618	-168.514	98.7683	-49.6348	-178.722	90.2234	-20.6414	-144.946	97.5847	-27.1485	
224	1.86667	-114.502	62.3558	-24.976	-106.864	47.7961	-54.1032	-98.516	41.6376	-79.8165	-110.577	45.8268	-104.961	-107.514	101.247	-85.3721	-99.6191	99.5668	-110.496	-91.4594	98.6287	-134.108	-127.936	79.3285	-97.992	-123.328	47.4262	-96.4265	-124.403	48.1949	-59.1317	-144.916	68.7672	-91.3937	-138.537	37.6555	-79.148	-139.058	47.3269	-48.4267	-160.25	59.7149	-88.8969	-151.906	38.3049	-69.2887	-152.1	57.653	-40.093	-166.759	94.739	-48.002	-173.048	87.8545	-16.7813	-136.503	95.6163	-25.9955	
225	1.875	-109.684	54.2093	-21.4897	-99.7492	37.3542	-49.2551	-99.6437	36.0839	-73.7312	-108.625	41.4962	-104.218	-100.489	93.5095	-85.3823	-88.539	90.4843	-107.092	-88.2636	90.4893	-129.695	-120.263	76.5663	-91.9329	-120.916	43.1008	-96.181	-123.897	40.9767	-59.8626	-139.38	60.3941	-92.8879	-132.257	34.6269	-78.2056	-138.404	41.4968	-47.3014	-153.049	57.8268	-85.6571	-148.709	36.0935	-68.4217	-150.41	52.5669	-38.5404	-159.345	92.6831	-45.7771	-167.224	81.7352	-14.4328	-131.373	88.2411	-23.1135	
226	1.88333	-107.705	46.1612	-19.8191	-103.214	30.74	-47.9061	-94.7763	26.8514	-76.9886	-106.724	34.6328	-101.636	-94.7499	83.3404	-79.4018	-83.8191	81.1668	-103.912	-78.4409	80.4082	-126.094	-115.065	67.5041	-91.2405	-116.786	34.2381	-91.7152	-122.068	34.9793	-56.1594	-132.364	55.5372	-89.3513	-134.753	28.4115	-77.0022	-135.484	38.5015	-43.7818	-152.211	51.8551	-86.1664	-149.581	30.16	-66.3572	-146.006	45.7276	-40.421	-155.574	87.8902	-47.8196	-160.579	79.8383	-14.9288	-129.557	81.8246	-19.8503	
227	1.89167	-111.149	39.9478	-16.7199	-102.819	24.3274	-44.4583	-98.112	20.8011	-71.8162	-106.054	26.5334	-97.09	-91.5096	74.9608	-76.2914	-78.794	71.7702	-97.9213	-70.9957	68.0224	-125.072	-111.101	60.1525	-89.3652	-113.227	26.7007	-90.2088	-121.301	26.7423	-54.3935	-133.706	48.0982	-90.512	-131.737	21.2451	-74.7865	-136.249	32.8003	-42.0141	-150.319	50.359	-82.562	-148.977	24.8435	-68.5141	-149.233	38.535	-37.2308	-147.823	84.5994	-45.6896	-160.705	74.7741	-14.9431	-122.51	78.1449	-19.6433	
228	1.9	-110.118	34.645	-14.7426	-103.994	17.0201	-40.717	-99.0014	13.4092	-68.6843	-101.424	17.084	-97.1416	-89.4085	67.2918	-79.0919	-77.7832	62.3722	-98.3498	-66.5276	56.734	-124.025	-111.323	53.5909	-89.7973	-115.552	22.0386	-90.6774	-124.36	20.6866	-57.0482	-136.178	46.6219	-87.3994	-131.993	16.708	-74.8125	-135.173	23.9002	-44.7658	-152.615	44.7088	-82.7388	-148.392	19.2316	-62.9487	-143.969	38.1693	-38.606	-149.788	78.9896	-44.7816	-158.046	72.8008	-13.5102	-122.904	71.4364	-17.0727	
229	1.90833	-110.3	27.2142	-15.9856	-105.81	7.98691	-41.2923	-101.611	5.37948	-69.2863	-105.435	12.44	-98.7908	-82.4511	55.6602	-74.8752	-73.5941	48.3514	-98.2668	-69.038	41.2788	-122.11	-108.146	49.2905	-86.4163	-115.64	15.0081	-90.7469	-126.729	14.8805	-58.2391	-132.62	41.7137	-88.6991	-137.931	13.6453	-75.4553	-137.525	24.6083	-41.9636	-149.12	40.2569	-82.6521	-150.066	18.6282	-67.2754	-145.174	33.8555	-35.2672	-141.294	74.4436	-41.7881	-154.212	71.1175	-11.8926	-118.903	66.3745	-20.6211	
230	1.91667	-108.023	12.5429	-15.8942	-109.995	-1.13524	-47.4123	-107.911	-5.02658	-73.3335	-111.25	5.11314	-98.9649	-77.0781	36.2521	-75.2473	-72.8854	25.4572	-102.161	-73.6359	17.2281	-127.254	-105.02	41.6488	-88.1946	-118.557	10.8642	-93.7159	-125.718	10.0898	-55.5218	-123.495	38.0474	-85.4095	-141.427	14.5419	-78.4781	-134.587	17.451	-44.8161	-143.855	45.9653	-80.2927	-148.881	20.1599	-62.9552	-139.527	33.4827	-34.5802	-122.79	72.0948	-40.3042	-131.624	65.5122	-9.96036	-104.084	53.7428	-16.7041	
231	1.925	-109.029	6.70143	-19.6384	-112.992	-10.4842	-49.8105	-112.677	-9.97031	-76.3114	-115.141	-1.98302	-100.204	-75.8463	21.3921	-78.4465	-76.145	10.9806	-101.633	-84.4251	2.60361	-131.222	-99.3765	30.3553	-88.8385	-121.746	7.28491	-91.8421	-128.339	7.87346	-55.7229	-122.996	35.5702	-86.2703	-143.13	15.3947	-76.9891	-135.099	18.3544	-44.2427	-136.526	46.8607	-77.0339	-148.741	22.4877	-65.2657	-140.719	28.0433	-35.9761	-113.341	66.4263	-37.6149	-124.246	63.2946	-7.71469	-98.1892	44.1167	-16.4883	
232	1.93333	-110.581	2.55214	-19.89	-118.323	-7.69713	-49.843	-116.572	-12.6753	-76.2981	-119.182	-3.91511	-98.2659	-79.1373	17.4227	-81.1066	-80.6561	4.15682	-102.685	-89.933	-5.10032	-125.911	-103.942	30.3203	-90.8351	-124.508	5.91043	-93.239	-132.468	5.82153	-59.7943	-127.898	35.1905	-87.5175	-141.834	12.5756	-76.6091	-135.483	17.645	-43.0138	-138.036	42.2617	-78.5782	-152.244	21.9789	-62.882	-137.45	28.8729	-33.6505	-113.877	62.0566	-34.5531	-124.598	60.4945	-6.74905	-98.5838	39.7748	-13.4089	
